<svg width="120" height="120" viewBox="0 0 120 120" fill="none" xmlns="http://www.w3.org/2000/svg">
<path d="M100.59 0H19.16C8.57822 0 0 8.59613 0 19.2V100.8C0 111.404 8.57822 120 19.16 120H100.59C111.172 120 119.75 111.404 119.75 100.8V19.2C119.75 8.59613 111.172 0 100.59 0Z" fill="black"/>
<path d="M25.3121 56.2238L49.1648 42.4688L49.1947 42.4501L73.7734 28.2751C74.81 27.6751 74.8586 25.8376 73.6985 25.1701L72.8865 24.7051C71.7002 24.0301 70.1659 23.1526 69.511 22.7701C68.9373 22.457 68.2929 22.2967 67.6397 22.3046C66.9864 22.3125 66.3461 22.4882 65.7801 22.8151C65.2 23.1526 26.4834 45.4576 25.1886 46.1963C24.4256 46.6334 23.562 46.8633 22.6832 46.8633C21.8043 46.8633 20.9407 46.6334 20.1778 46.1963L-0.269531 34.2901V44.4113L-0.0599688 44.5313C5.04437 47.5126 17.1242 54.5626 20.0805 56.2313C21.873 57.2438 23.5869 57.2213 25.3121 56.2238Z" fill="white"/>
<path d="M25.3121 76.4438L49.1348 62.7038L49.2246 62.6513L73.7734 48.495C74.81 47.895 74.8586 46.0538 73.6985 45.39L72.8865 44.925C71.704 44.25 70.1659 43.3725 69.511 42.99C68.9373 42.677 68.2929 42.5167 67.6397 42.5246C66.9864 42.5324 66.3461 42.7082 65.7801 43.035C65.2 43.3688 26.4834 65.6775 25.1886 66.4125C24.4256 66.8496 23.562 67.0795 22.6832 67.0795C21.8043 67.0795 20.9407 66.8496 20.1778 66.4125C18.9578 65.7075 -0.269531 54.51 -0.269531 54.51V64.6275L-0.0599688 64.7513C5.04812 67.7325 17.1242 74.7788 20.0805 76.4513C21.873 77.4638 23.5869 77.4413 25.3121 76.4438Z" fill="white"/>
<path d="M49.1685 82.905L25.3121 96.6638C23.5869 97.6613 21.8693 97.6837 20.0805 96.6712C17.1242 94.9987 5.04812 87.9525 -0.0599688 84.9713L-0.269531 84.8475V74.73L20.1778 86.6325C21.7233 87.5288 23.6393 87.5175 25.1886 86.6325C26.4834 85.8975 65.2 63.5888 65.7801 63.2513C66.3461 62.9244 66.9864 62.7487 67.6397 62.7408C68.293 62.7329 68.9373 62.8932 69.511 63.2063C70.904 64.0135 72.3011 64.8135 73.7023 65.6063C74.8624 66.2738 74.81 68.115 73.7734 68.715L49.1685 82.905Z" fill="white"/>
</svg>
