<svg width="479" height="120" viewBox="0 0 479 120" fill="none" xmlns="http://www.w3.org/2000/svg">
<g clip-path="url(#clip0_299_26)">
<path d="M100.59 0H19.16C8.57822 0 0 8.59613 0 19.2V100.8C0 111.404 8.57822 120 19.16 120H100.59C111.172 120 119.75 111.404 119.75 100.8V19.2C119.75 8.59613 111.172 0 100.59 0Z" fill="black"/>
<path d="M25.3121 56.2238L49.1648 42.4688L49.1947 42.4501L73.7734 28.2751C74.81 27.6751 74.8586 25.8376 73.6985 25.1701L72.8865 24.7051C71.7002 24.0301 70.1659 23.1526 69.511 22.7701C68.9373 22.457 68.2929 22.2967 67.6397 22.3046C66.9864 22.3125 66.3461 22.4882 65.7801 22.8151C65.2 23.1526 26.4834 45.4576 25.1886 46.1963C24.4256 46.6334 23.562 46.8633 22.6832 46.8633C21.8043 46.8633 20.9407 46.6334 20.1778 46.1963L-0.269531 34.2901V44.4113L-0.0599688 44.5313C5.04437 47.5126 17.1242 54.5626 20.0805 56.2313C21.873 57.2438 23.5869 57.2213 25.3121 56.2238Z" fill="white"/>
<path d="M25.3121 76.4438L49.1348 62.7038L49.2246 62.6513L73.7734 48.495C74.81 47.895 74.8586 46.0538 73.6985 45.39L72.8865 44.925C71.704 44.25 70.1659 43.3725 69.511 42.99C68.9373 42.677 68.2929 42.5167 67.6397 42.5246C66.9864 42.5324 66.3461 42.7082 65.7801 43.035C65.2 43.3688 26.4834 65.6775 25.1886 66.4125C24.4256 66.8496 23.562 67.0795 22.6832 67.0795C21.8043 67.0795 20.9407 66.8496 20.1778 66.4125C18.9578 65.7075 -0.269531 54.51 -0.269531 54.51V64.6275L-0.0599688 64.7513C5.04812 67.7325 17.1242 74.7788 20.0805 76.4513C21.873 77.4638 23.5869 77.4413 25.3121 76.4438Z" fill="white"/>
<path d="M49.1685 82.905L25.3121 96.6638C23.5869 97.6613 21.8693 97.6837 20.0805 96.6712C17.1242 94.9987 5.04812 87.9525 -0.0599688 84.9713L-0.269531 84.8475V74.73L20.1778 86.6325C21.7233 87.5288 23.6393 87.5175 25.1886 86.6325C26.4834 85.8975 65.2 63.5888 65.7801 63.2513C66.3461 62.9244 66.9864 62.7487 67.6397 62.7408C68.293 62.7329 68.9373 62.8932 69.511 63.2063C70.904 64.0135 72.3011 64.8135 73.7023 65.6063C74.8624 66.2738 74.81 68.115 73.7734 68.715L49.1685 82.905Z" fill="white"/>
<path d="M208.253 70.2375C208.253 72.1687 208.586 74.0437 209.241 75.8325C209.899 77.6362 210.857 79.2225 212.137 80.6062C213.417 81.9937 214.947 83.0962 216.74 83.9212C218.536 84.75 220.576 85.1625 222.847 85.1625C225.122 85.1625 227.158 84.75 228.951 83.925C230.68 83.1502 232.235 82.0343 233.524 80.6439C234.813 79.2535 235.81 77.6172 236.454 75.8325C237.101 74.0437 237.427 72.1687 237.427 70.2375C237.427 68.3062 237.101 66.4312 236.454 64.635C235.813 62.8696 234.828 61.2494 233.557 59.8687C232.257 58.4688 230.692 57.3409 228.954 56.55C227.033 55.6939 224.949 55.2677 222.847 55.3012C220.576 55.3012 218.536 55.725 216.744 56.55C214.947 57.3787 213.417 58.485 212.141 59.8687C210.866 61.2456 209.879 62.8651 209.241 64.6312C208.586 66.4312 208.253 68.3062 208.253 70.2375ZM195.844 70.2375C195.844 66.3 196.555 62.7187 197.965 59.505C199.303 56.396 201.258 53.5917 203.71 51.2625C206.188 48.9416 209.106 47.1424 212.29 45.9712C215.669 44.7186 219.245 44.0872 222.847 44.1075C226.571 44.1075 230.088 44.73 233.4 45.9712C236.584 47.1436 239.503 48.9412 241.985 51.2587C244.435 53.5907 246.389 56.3958 247.729 59.505C249.144 62.7187 249.851 66.2962 249.851 70.2375C249.851 74.175 249.14 77.7562 247.729 80.97C246.389 84.0778 244.435 86.8817 241.985 89.2125C239.506 91.5335 236.586 93.3316 233.4 94.5C230.026 95.757 226.451 96.3885 222.851 96.3637C219.248 96.3884 215.671 95.7569 212.294 94.5C209.108 93.3352 206.19 91.5381 203.713 89.2162C201.261 86.887 199.307 84.0828 197.969 80.9737C196.555 77.76 195.847 74.1825 195.847 70.2412L195.844 70.2375ZM268.053 70.2525C268.053 72.1837 268.378 74.0587 269.037 75.8475C269.692 77.6512 270.65 79.2375 271.93 80.6212C273.21 82.0087 274.744 83.1112 276.536 83.9362C278.333 84.7612 280.368 85.1775 282.64 85.1775C284.915 85.1775 286.951 84.765 288.747 83.94C290.477 83.1663 292.033 82.0507 293.322 80.6602C294.611 79.2697 295.607 77.6328 296.25 75.8475C296.898 74.0538 297.228 72.1601 297.223 70.2525C297.223 68.3212 296.898 66.4462 296.25 64.65C295.604 62.8671 294.607 61.2325 293.318 59.8436C292.029 58.4547 290.475 57.3397 288.747 56.565C286.826 55.7088 284.742 55.2826 282.64 55.3162C280.368 55.3162 278.329 55.74 276.54 56.565C274.799 57.3548 273.232 58.4828 271.93 59.8837C270.654 61.2675 269.692 62.8537 269.037 64.6462C268.378 66.4462 268.053 68.3212 268.053 70.2525ZM297.436 87.6675H297.223C295.431 90.7125 293.024 92.925 289.986 94.305C286.897 95.6951 283.545 96.4011 280.159 96.375C276.293 96.375 272.865 95.7075 269.86 94.3575C266.936 93.0628 264.312 91.1728 262.155 88.8075C259.984 86.4055 258.328 83.5821 257.29 80.5125C256.167 77.21 255.61 73.7412 255.64 70.2525C255.608 66.7521 256.204 63.2744 257.399 59.985C258.495 56.9327 260.161 54.1176 262.309 51.69C264.429 49.3322 267.018 47.4443 269.909 46.1475C272.88 44.7975 276.121 44.1225 279.639 44.1225C281.985 44.1225 284.054 44.3662 285.851 44.8462C287.643 45.3337 289.226 45.9525 290.603 46.7212C292.903 47.9316 294.914 49.6267 296.497 51.69H296.812V24.2737C296.812 23.0325 297.796 21.5662 299.521 21.5662H306.53C308.154 21.5662 309.232 22.9312 309.232 24.2737V92.4225C309.232 94.155 307.769 95.1337 306.53 95.1337H300.15C299.435 95.127 298.751 94.8404 298.244 94.3352C297.737 93.8301 297.447 93.1463 297.436 92.43V87.6675ZM329.9 70.2375C329.9 72.1687 330.229 74.0437 330.888 75.8325C331.543 77.6362 332.504 79.2225 333.784 80.6062C335.084 82.0058 336.649 83.1326 338.387 83.9212C340.183 84.75 342.219 85.1625 344.494 85.1625C346.766 85.1625 348.805 84.75 350.598 83.925C352.327 83.1511 353.883 82.0355 355.173 80.645C356.462 79.2545 357.458 77.6177 358.101 75.8325C358.748 74.0437 359.074 72.1687 359.074 70.2375C359.074 68.3062 358.748 66.4312 358.101 64.635C357.455 62.8523 356.458 61.2179 355.169 59.8291C353.88 58.4402 352.325 57.325 350.598 56.55C348.678 55.6945 346.595 55.2684 344.494 55.3012C342.219 55.3012 340.18 55.725 338.387 56.55C336.595 57.3787 335.064 58.485 333.784 59.8687C332.504 61.2525 331.543 62.8387 330.888 64.6312C330.229 66.4312 329.9 68.3062 329.9 70.2375ZM317.491 70.2375C317.491 66.3 318.198 62.7187 319.613 59.505C320.949 56.3962 322.902 53.592 325.353 51.2625C327.832 48.9416 330.75 47.1424 333.934 45.9712C337.314 44.7182 340.891 44.0868 344.494 44.1075C348.214 44.1075 351.736 44.73 355.044 45.9712C358.229 47.1432 361.149 48.9408 363.632 51.2587C366.081 53.5911 368.034 56.3962 369.373 59.505C370.787 62.7187 371.498 66.2962 371.498 70.2375C371.498 74.175 370.787 77.7562 369.376 80.97C368.036 84.0778 366.082 86.8817 363.632 89.2125C361.151 91.5326 358.231 93.3295 355.044 94.4962C351.668 95.7537 348.092 96.3852 344.491 96.36C340.889 96.3842 337.314 95.7527 333.938 94.4962C330.751 93.3318 327.831 91.5347 325.353 89.2125C322.902 86.8831 320.949 84.0788 319.613 80.97C318.198 77.7562 317.491 74.1787 317.491 70.2375ZM377.755 28.455C377.755 26.4487 378.496 24.7087 379.978 23.2125C381.467 21.7312 383.346 20.985 385.617 20.985C387.893 20.985 389.812 21.6975 391.362 23.115C392.911 24.5325 393.693 26.31 393.693 28.455C393.714 29.4613 393.517 30.4601 393.114 31.3822C392.712 32.3044 392.114 33.1277 391.362 33.795C389.812 35.2125 387.893 35.9212 385.617 35.9212C383.346 35.9212 381.467 35.1787 379.978 33.6862C378.496 32.2012 377.755 30.4612 377.755 28.455ZM429.004 59.1375C427.766 59.1375 426.853 58.2 426.699 57.7912C425.666 55.08 422.377 54.0637 419.72 54.0637C415.532 54.0637 412.247 56.01 412.247 59.3512C412.247 62.5875 415.428 63.2512 417.392 63.8475C419.548 64.5 423.668 65.4 425.939 65.9362C428.185 66.4591 430.358 67.2602 432.406 68.3212C438.996 71.7525 439.935 77.1487 439.935 80.3962C439.935 92.385 428.084 96.36 419.855 96.36C413.512 96.36 401.596 95.3962 398.981 83.28C398.726 82.0987 399.767 80.2875 401.679 80.2875H408.535C409.882 80.2875 410.791 81.2737 411.057 82.05C411.936 84.4837 414.735 86.325 419.458 86.325C424.521 86.325 427.515 84.3112 427.515 81.6337C427.515 79.9012 426.538 78.3637 425.258 77.4937C421.419 74.8837 411.921 74.5912 406.764 71.8387C404.789 70.7887 399.834 68.3812 399.834 60.18C399.834 48.8737 410.091 44.1075 419.102 44.1075C432.391 44.1075 437.267 52.5187 437.817 55.6387C438.12 57.36 437.159 59.1412 435.228 59.1412L429.004 59.1375ZM440.953 52.9837V47.835C440.953 46.6087 441.919 45.1312 443.636 45.1312H450.256V32.4937C450.256 31.1437 451.169 30.3187 451.862 30.0187L458.934 26.925C461 26.0737 462.673 27.78 462.673 29.4225V45.1312H473.63C475.325 45.1312 476.332 46.6125 476.332 47.835V52.9912C476.311 53.7025 476.02 54.379 475.519 54.8829C475.018 55.3867 474.343 55.6799 473.634 55.7025H462.673V77.4825C462.673 79.9687 462.605 81.915 463.552 83.3512C464.424 84.6675 465.7 85.1587 468.256 85.1587C468.99 85.1587 469.644 85.035 470.198 84.8475C470.792 84.6213 471.447 84.617 472.043 84.8353C472.64 85.0537 473.138 85.48 473.447 86.0362C474.255 87.6037 475.179 89.325 475.827 90.5587C476.541 91.9125 475.965 93.6525 474.663 94.2825C472.563 95.3062 469.652 96.135 465.659 96.135C462.351 96.135 460.476 95.775 458.38 95.0475C456.315 94.2861 454.486 92.9927 453.078 91.2975C451.865 89.8125 451.267 87.825 450.818 85.6125C450.361 83.4 450.256 80.7225 450.256 77.8125V55.7025H443.651C441.919 55.7025 440.953 54.2025 440.953 52.9837ZM156.902 52.9837V47.835C156.902 46.6087 157.872 45.1312 159.585 45.1312H167.148V32.4937C167.148 31.1437 168.065 30.3187 168.758 30.0187L175.83 26.925C177.896 26.0737 179.569 27.78 179.569 29.4225V45.1312H190.526C192.217 45.1312 193.228 46.6125 193.228 47.835V52.9912C193.207 53.7031 192.916 54.3802 192.414 54.8841C191.912 55.3881 191.236 55.6808 190.526 55.7025H179.569V77.4825C179.569 79.9687 179.501 81.915 180.448 83.3512C181.316 84.6675 182.592 85.1587 185.152 85.1587C185.886 85.1587 186.537 85.035 187.094 84.8475C187.687 84.6224 188.342 84.6186 188.937 84.8369C189.533 85.0551 190.03 85.4808 190.339 86.0362C191.151 87.6037 192.075 89.325 192.723 90.5587C193.434 91.9125 192.861 93.6525 191.559 94.2825C189.456 95.3062 186.544 96.135 182.555 96.135C179.247 96.135 177.372 95.775 175.276 95.0475C173.21 94.286 171.38 92.9927 169.97 91.2975C168.758 89.8125 168.159 87.825 167.714 85.6125C167.257 83.4 167.152 80.7225 167.152 77.8125V55.7025H159.604C157.872 55.7025 156.902 54.2025 156.902 52.9837ZM382.133 95.1375H389.154C389.87 95.1355 390.556 94.849 391.062 94.3407C391.568 93.8325 391.852 93.144 391.852 92.4262V47.8387C391.851 47.1216 391.566 46.4341 391.061 45.9267C390.555 45.4192 389.869 45.1332 389.154 45.1312H382.133C381.418 45.1342 380.733 45.4205 380.227 45.9277C379.722 46.435 379.437 47.1219 379.435 47.8387V92.4262C379.435 93.9187 380.651 95.1337 382.133 95.1337V95.1375Z" fill="black"/>
</g>
<defs>
<clipPath id="clip0_299_26">
<rect width="479" height="120" fill="white"/>
</clipPath>
</defs>
</svg>
