<svg width="322" height="96" viewBox="0 0 322 96" fill="none" xmlns="http://www.w3.org/2000/svg">
<g clip-path="url(#clip0_295_12)">
<path d="M0 59.5H322" stroke="hsl(var(--ds-gray-alpha-400))" stroke-dasharray="2 2"/>
<path d="M0 28.5H322" stroke="hsl(var(--ds-gray-alpha-400))" stroke-dasharray="2 2"/>
<path d="M0 67.5H322" stroke="hsl(var(--ds-gray-alpha-400))" stroke-dasharray="2 2"/>
<path d="M248.75 0.940186V96" stroke="hsl(var(--ds-gray-alpha-400))" stroke-dasharray="2 2"/>
<path d="M73.1499 0.940186V96" stroke="hsl(var(--ds-gray-alpha-400))" stroke-dasharray="2 2"/>
<path d="M113 1V96.0598" stroke="hsl(var(--ds-gray-alpha-400))" stroke-dasharray="2 2"/>
<path d="M318 0.5H4C2.067 0.5 0.5 2.067 0.5 4V92C0.5 93.933 2.067 95.5 4 95.5H318C319.933 95.5 321.5 93.933 321.5 92V4C321.5 2.067 319.933 0.5 318 0.5Z" stroke="hsl(var(--ds-gray-alpha-400))" stroke-dasharray="2 2"/>
<g clip-path="url(#clip1_295_12)">
<path d="M106.6 28H79.4C75.8654 28 73 30.8654 73 34.4V61.6C73 65.1346 75.8654 68 79.4 68H106.6C110.135 68 113 65.1346 113 61.6V34.4C113 30.8654 110.135 28 106.6 28Z" fill="hsl(var(--ds-gray-700))"/>
<path d="M81.4549 46.7413L89.4224 42.1563L89.4324 42.15L97.6424 37.425C97.9887 37.225 98.0049 36.6125 97.6174 36.39L97.3462 36.235C96.9499 36.01 96.4374 35.7175 96.2187 35.59C96.027 35.4856 95.8118 35.4322 95.5936 35.4348C95.3754 35.4375 95.1615 35.4961 94.9724 35.605C94.7787 35.7175 81.8462 43.1525 81.4137 43.3988C81.1588 43.5444 80.8703 43.6211 80.5768 43.6211C80.2832 43.6211 79.9948 43.5444 79.7399 43.3988L72.9099 39.43V42.8038L72.9799 42.8438C74.6849 43.8375 78.7199 46.1875 79.7074 46.7438C80.3062 47.0813 80.8787 47.0738 81.4549 46.7413Z" fill="white"/>
<path d="M81.4549 53.4812L89.4124 48.9012L89.4424 48.8837L97.6424 44.165C97.9887 43.965 98.0049 43.3512 97.6174 43.13L97.3462 42.975C96.9512 42.75 96.4374 42.4575 96.2187 42.33C96.027 42.2256 95.8118 42.1722 95.5936 42.1748C95.3754 42.1775 95.1615 42.2361 94.9724 42.345C94.7787 42.4562 81.8462 49.8925 81.4137 50.1375C81.1588 50.2832 80.8703 50.3598 80.5768 50.3598C80.2832 50.3598 79.9948 50.2832 79.7399 50.1375C79.3324 49.9025 72.9099 46.17 72.9099 46.17V49.5425L72.9799 49.5837C74.6862 50.5775 78.7199 52.9262 79.7074 53.4837C80.3062 53.8212 80.8787 53.8137 81.4549 53.4812Z" fill="white"/>
<path d="M89.4237 55.635L81.4549 60.2213C80.8787 60.5538 80.3049 60.5613 79.7074 60.2238C78.7199 59.6663 74.6862 57.3175 72.9799 56.3238L72.9099 56.2825V52.91L79.7399 56.8775C80.2562 57.1763 80.8962 57.1725 81.4137 56.8775C81.8462 56.6325 94.7787 49.1963 94.9724 49.0838C95.1615 48.9748 95.3754 48.9162 95.5936 48.9136C95.8118 48.911 96.027 48.9644 96.2187 49.0688C96.684 49.3378 97.1506 49.6045 97.6187 49.8688C98.0062 50.0913 97.9887 50.705 97.6424 50.905L89.4237 55.635Z" fill="white"/>
<path d="M142.562 51.4125C142.562 52.0562 142.674 52.6812 142.892 53.2775C143.112 53.8787 143.432 54.4075 143.86 54.8687C144.287 55.3312 144.799 55.6987 145.397 55.9737C145.997 56.25 146.679 56.3875 147.437 56.3875C148.197 56.3875 148.877 56.25 149.476 55.975C150.054 55.7167 150.573 55.3448 151.004 54.8813C151.434 54.4178 151.767 53.8724 151.982 53.2775C152.199 52.6812 152.307 52.0562 152.307 51.4125C152.307 50.7687 152.199 50.1437 151.982 49.545C151.768 48.9565 151.44 48.4165 151.015 47.9562C150.58 47.4896 150.058 47.1136 149.477 46.85C148.836 46.5646 148.14 46.4226 147.437 46.4337C146.679 46.4337 145.997 46.575 145.399 46.85C144.799 47.1262 144.287 47.495 143.861 47.9562C143.435 48.4152 143.106 48.955 142.892 49.5437C142.674 50.1437 142.562 50.7687 142.562 51.4125ZM138.417 51.4125C138.417 50.1 138.655 48.9062 139.126 47.835C139.573 46.7987 140.226 45.8639 141.045 45.0875C141.873 44.3139 142.847 43.7141 143.911 43.3237C145.04 42.9062 146.234 42.6957 147.437 42.7025C148.681 42.7025 149.856 42.91 150.962 43.3237C152.026 43.7145 153.001 44.3137 153.83 45.0862C154.648 45.8636 155.301 46.7986 155.749 47.835C156.221 48.9062 156.457 50.0987 156.457 51.4125C156.457 52.725 156.22 53.9187 155.749 54.99C155.301 56.0259 154.648 56.9606 153.83 57.7375C153.002 58.5112 152.027 59.1105 150.962 59.5C149.835 59.919 148.641 60.1295 147.439 60.1212C146.235 60.1295 145.04 59.919 143.912 59.5C142.848 59.1117 141.873 58.5127 141.046 57.7387C140.227 56.9623 139.574 56.0276 139.127 54.9912C138.655 53.92 138.419 52.7275 138.419 51.4137L138.417 51.4125ZM162.537 51.4175C162.537 52.0612 162.646 52.6862 162.866 53.2825C163.085 53.8837 163.405 54.4125 163.832 54.8737C164.26 55.3362 164.772 55.7037 165.371 55.9787C165.971 56.2537 166.651 56.3925 167.41 56.3925C168.17 56.3925 168.85 56.255 169.45 55.98C170.028 55.7221 170.547 55.3502 170.978 54.8867C171.409 54.4232 171.741 53.8776 171.956 53.2825C172.173 52.6846 172.283 52.0534 172.281 51.4175C172.281 50.7737 172.172 50.1487 171.956 49.55C171.74 48.9557 171.407 48.4108 170.977 47.9479C170.546 47.4849 170.027 47.1132 169.45 46.855C168.808 46.5696 168.112 46.4275 167.41 46.4387C166.651 46.4387 165.97 46.58 165.372 46.855C164.791 47.1183 164.268 47.4943 163.832 47.9612C163.406 48.4225 163.085 48.9512 162.866 49.5487C162.646 50.1487 162.537 50.7737 162.537 51.4175ZM172.352 57.2225H172.281C171.682 58.2375 170.879 58.975 169.864 59.435C168.832 59.8984 167.712 60.1337 166.581 60.125C165.29 60.125 164.145 59.9025 163.141 59.4525C162.164 59.0209 161.288 58.3909 160.567 57.6025C159.842 56.8018 159.289 55.8607 158.942 54.8375C158.567 53.7367 158.381 52.5804 158.391 51.4175C158.381 50.2507 158.58 49.0915 158.979 47.995C159.345 46.9776 159.901 46.0392 160.619 45.23C161.327 44.4441 162.192 43.8148 163.157 43.3825C164.15 42.9325 165.232 42.7075 166.407 42.7075C167.191 42.7075 167.882 42.7887 168.482 42.9487C169.081 43.1112 169.61 43.3175 170.07 43.5737C170.838 43.9772 171.51 44.5422 172.039 45.23H172.144V36.0912C172.144 35.6775 172.472 35.1887 173.049 35.1887H175.39C175.932 35.1887 176.292 35.6437 176.292 36.0912V58.8075C176.292 59.385 175.804 59.7112 175.39 59.7112H173.259C173.02 59.709 172.791 59.6135 172.622 59.4451C172.453 59.2767 172.356 59.0488 172.352 58.81V57.2225ZM183.196 51.4125C183.196 52.0562 183.306 52.6812 183.526 53.2775C183.745 53.8787 184.066 54.4075 184.494 54.8687C184.928 55.3353 185.451 55.7109 186.031 55.9737C186.631 56.25 187.311 56.3875 188.071 56.3875C188.83 56.3875 189.511 56.25 190.11 55.975C190.688 55.717 191.207 55.3452 191.638 54.8817C192.069 54.4182 192.401 53.8726 192.616 53.2775C192.832 52.6812 192.941 52.0562 192.941 51.4125C192.941 50.7687 192.832 50.1437 192.616 49.545C192.4 48.9508 192.067 48.406 191.637 47.943C191.206 47.4801 190.687 47.1083 190.11 46.85C189.469 46.5648 188.773 46.4228 188.071 46.4337C187.311 46.4337 186.63 46.575 186.031 46.85C185.432 47.1262 184.921 47.495 184.494 47.9562C184.066 48.4175 183.745 48.9462 183.526 49.5437C183.306 50.1437 183.196 50.7687 183.196 51.4125ZM179.051 51.4125C179.051 50.1 179.287 48.9062 179.76 47.835C180.206 46.7987 180.859 45.864 181.677 45.0875C182.505 44.3139 183.48 43.7141 184.544 43.3237C185.673 42.9061 186.868 42.6956 188.071 42.7025C189.314 42.7025 190.49 42.91 191.595 43.3237C192.659 43.7144 193.634 44.3136 194.464 45.0862C195.282 45.8637 195.934 46.7987 196.381 47.835C196.854 48.9062 197.091 50.0987 197.091 51.4125C197.091 52.725 196.854 53.9187 196.382 54.99C195.935 56.0259 195.282 56.9606 194.464 57.7375C193.635 58.5109 192.66 59.1098 191.595 59.4987C190.467 59.9179 189.273 60.1284 188.07 60.12C186.867 60.1281 185.673 59.9176 184.545 59.4987C183.48 59.1106 182.505 58.5116 181.677 57.7375C180.859 56.961 180.206 56.0263 179.76 54.99C179.287 53.9187 179.051 52.7262 179.051 51.4125ZM199.181 37.485C199.181 36.8162 199.429 36.2362 199.924 35.7375C200.421 35.2437 201.049 34.995 201.807 34.995C202.567 34.995 203.209 35.2325 203.726 35.705C204.244 36.1775 204.505 36.77 204.505 37.485C204.512 37.8204 204.446 38.1534 204.312 38.4607C204.177 38.7681 203.977 39.0426 203.726 39.265C203.209 39.7375 202.567 39.9737 201.807 39.9737C201.049 39.9737 200.421 39.7262 199.924 39.2287C199.429 38.7337 199.181 38.1537 199.181 37.485ZM216.3 47.7125C215.886 47.7125 215.581 47.4 215.53 47.2637C215.185 46.36 214.086 46.0212 213.199 46.0212C211.8 46.0212 210.702 46.67 210.702 47.7837C210.702 48.8625 211.765 49.0837 212.421 49.2825C213.141 49.5 214.517 49.8 215.276 49.9787C216.026 50.153 216.752 50.4201 217.436 50.7737C219.637 51.9175 219.951 53.7162 219.951 54.7987C219.951 58.795 215.992 60.12 213.244 60.12C211.125 60.12 207.145 59.7987 206.271 55.76C206.186 55.3662 206.534 54.7625 207.172 54.7625H209.462C209.912 54.7625 210.216 55.0912 210.305 55.35C210.599 56.1612 211.534 56.775 213.111 56.775C214.802 56.775 215.802 56.1037 215.802 55.2112C215.802 54.6337 215.476 54.1212 215.049 53.8312C213.766 52.9612 210.594 52.8637 208.871 51.9462C208.211 51.5962 206.556 50.7937 206.556 48.06C206.556 44.2912 209.982 42.7025 212.992 42.7025C217.431 42.7025 219.06 45.5062 219.244 46.5462C219.345 47.12 219.024 47.7137 218.379 47.7137L216.3 47.7125ZM220.291 45.6612V43.945C220.291 43.5362 220.614 43.0437 221.187 43.0437H223.399V38.8312C223.399 38.3812 223.704 38.1062 223.935 38.0062L226.297 36.975C226.987 36.6912 227.546 37.26 227.546 37.8075V43.0437H231.206C231.772 43.0437 232.109 43.5375 232.109 43.945V45.6637C232.102 45.9008 232.005 46.1263 231.837 46.2943C231.67 46.4622 231.444 46.56 231.207 46.5675H227.546V53.8275C227.546 54.6562 227.524 55.305 227.84 55.7837C228.131 56.2225 228.557 56.3862 229.411 56.3862C229.656 56.3862 229.875 56.345 230.06 56.2825C230.258 56.2071 230.477 56.2057 230.676 56.2784C230.875 56.3512 231.042 56.4933 231.145 56.6787C231.415 57.2012 231.724 57.775 231.94 58.1862C232.179 58.6375 231.986 59.2175 231.551 59.4275C230.85 59.7687 229.877 60.045 228.544 60.045C227.439 60.045 226.812 59.925 226.112 59.6825C225.422 59.4287 224.811 58.9976 224.341 58.4325C223.936 57.9375 223.736 57.275 223.586 56.5375C223.434 55.8 223.399 54.9075 223.399 53.9375V46.5675H221.192C220.614 46.5675 220.291 46.0675 220.291 45.6612ZM125.41 45.6612V43.945C125.41 43.5362 125.734 43.0437 126.306 43.0437H128.832V38.8312C128.832 38.3812 129.139 38.1062 129.37 38.0062L131.732 36.975C132.422 36.6912 132.981 37.26 132.981 37.8075V43.0437H136.641C137.206 43.0437 137.544 43.5375 137.544 43.945V45.6637C137.537 45.901 137.439 46.1267 137.272 46.2947C137.104 46.4627 136.878 46.5603 136.641 46.5675H132.981V53.8275C132.981 54.6562 132.959 55.305 133.275 55.7837C133.565 56.2225 133.991 56.3862 134.846 56.3862C135.091 56.3862 135.309 56.345 135.495 56.2825C135.693 56.2075 135.912 56.2062 136.111 56.279C136.309 56.3517 136.476 56.4936 136.579 56.6787C136.85 57.2012 137.159 57.775 137.375 58.1862C137.612 58.6375 137.421 59.2175 136.986 59.4275C136.284 59.7687 135.311 60.045 133.979 60.045C132.874 60.045 132.247 59.925 131.547 59.6825C130.857 59.4287 130.246 58.9976 129.775 58.4325C129.37 57.9375 129.17 57.275 129.021 56.5375C128.869 55.8 128.834 54.9075 128.834 53.9375V46.5675H126.312C125.734 46.5675 125.41 46.0675 125.41 45.6612ZM200.644 59.7125H202.989C203.228 59.7118 203.457 59.6163 203.626 59.4469C203.795 59.2775 203.89 59.048 203.89 58.8087V43.9462C203.89 43.7072 203.795 43.478 203.626 43.3089C203.457 43.1397 203.228 43.0444 202.989 43.0437H200.644C200.405 43.0447 200.176 43.1402 200.007 43.3092C199.838 43.4783 199.743 43.7073 199.742 43.9462V58.8087C199.742 59.3062 200.149 59.7112 200.644 59.7112V59.7125Z" fill="hsl(var(--ds-gray-700))"/>
</g>
</g>
<defs>
<clipPath id="clip0_295_12">
<rect width="322" height="96" fill="white"/>
</clipPath>
<clipPath id="clip1_295_12">
<rect width="160" height="40" fill="white" transform="translate(73 28)"/>
</clipPath>
</defs>
</svg>
